name C:\Users\u0150099\Documents\master_thesis\3dpredictsim\Results\debug\Fal_s1_mtj_sc_cspx10_oy_ATx80_MTPm_k1_d01_MTJm_nl_MG_exp_table_d01_PF_Gefen2002_ls146_FDB_ig21.mot
datacolumns 130
datarows 4
range 0.00000000 0.03135545
endheader
time	pelvis_tilt	pelvis_list	pelvis_rotation	pelvis_tx	pelvis_ty	pelvis_tz	hip_flexion_l	hip_adduction_l	hip_rotation_l	hip_flexion_r	hip_adduction_r	hip_rotation_r	knee_angle_l	knee_angle_r	ankle_angle_l	ankle_angle_r	subtalar_angle_l	subtalar_angle_r	mtj_angle_l	mtj_angle_r	mtp_angle_l	mtp_angle_r	lumbar_extension	lumbar_bending	lumbar_rotation	arm_flex_l	arm_add_l	arm_rot_l	arm_flex_r	arm_add_r	arm_rot_r	elbow_flex_l	elbow_flex_r	pro_sup_l	pro_sup_r	glut_med1_l/activation	glut_med2_l/activation	glut_med3_l/activation	glut_min1_l/activation	glut_min2_l/activation	glut_min3_l/activation	semimem_l/activation	semiten_l/activation	bifemlh_l/activation	bifemsh_l/activation	sar_l/activation	add_long_l/activation	add_brev_l/activation	add_mag1_l/activation	add_mag2_l/activation	add_mag3_l/activation	tfl_l/activation	pect_l/activation	grac_l/activation	glut_max1_l/activation	glut_max2_l/activation	glut_max3_l/activation	iliacus_l/activation	psoas_l/activation	quad_fem_l/activation	gem_l/activation	peri_l/activation	rect_fem_l/activation	vas_med_l/activation	vas_int_l/activation	vas_lat_l/activation	med_gas_l/activation	lat_gas_l/activation	soleus_l/activation	tib_post_l/activation	flex_dig_l/activation	flex_hal_l/activation	tib_ant_l/activation	per_brev_l/activation	per_long_l/activation	per_tert_l/activation	ext_dig_l/activation	ext_hal_l/activation	FDB_l/activation	ercspn_l/activation	intobl_l/activation	extobl_l/activation	glut_med1_r/activation	glut_med2_r/activation	glut_med3_r/activation	glut_min1_r/activation	glut_min2_r/activation	glut_min3_r/activation	semimem_r/activation	semiten_r/activation	bifemlh_r/activation	bifemsh_r/activation	sar_r/activation	add_long_r/activation	add_brev_r/activation	add_mag1_r/activation	add_mag2_r/activation	add_mag3_r/activation	tfl_r/activation	pect_r/activation	grac_r/activation	glut_max1_r/activation	glut_max2_r/activation	glut_max3_r/activation	iliacus_r/activation	psoas_r/activation	quad_fem_r/activation	gem_r/activation	peri_r/activation	rect_fem_r/activation	vas_med_r/activation	vas_int_r/activation	vas_lat_r/activation	med_gas_r/activation	lat_gas_r/activation	soleus_r/activation	tib_post_r/activation	flex_dig_r/activation	flex_hal_r/activation	tib_ant_r/activation	per_brev_r/activation	per_long_r/activation	per_tert_r/activation	ext_dig_r/activation	ext_hal_r/activation	FDB_r/activation	ercspn_r/activation	intobl_r/activation	extobl_r/activation	
          0.00000000	         -2.92500017	         -1.73416161	          2.48966225	          0.00000000	          0.91004274	         -0.00420268	        -12.86839337	          2.75434104	          5.62347692	         30.13557256	          3.22248784	         -4.45452653	        -14.80296356	        -14.04285233	          1.91144446	         10.22539508	         -8.38086157	         -4.25603429	          3.43033238	         -4.05551017	         22.60312563	         10.87966812	         -3.63247623	          0.90198473	         -1.59545145	          4.16806693	        -13.70582514	         19.34451809	         -3.91255706	        -13.47852977	          6.48253997	         31.23362152	         25.91776276	         86.51662706	         86.51662706	          0.28496273	          0.05000197	          0.05000031	          0.48917314	          0.14985022	          0.06685067	          0.05000131	          0.05000022	          0.05000017	          0.05000035	          0.05945285	          0.05000017	          0.05000025	          0.05000058	          0.05000151	          0.05000078	          0.46036187	          0.05000091	          0.05000054	          0.05000336	          0.05000188	          0.05000126	          0.47101694	          0.68258821	          0.05000023	          0.05000072	          0.05000020	          0.46378684	          0.20349811	          0.20787573	          0.17578238	          0.35538812	          0.50626010	          0.19108420	          0.69811631	          0.34281183	          0.53993383	          0.05000002	          0.18005053	          0.61397310	          0.05000011	          0.05000004	          0.11149795	          0.77157018	          0.05000004	          0.05000006	          0.05000004	          0.05000021	          0.05000156	          0.05000066	          0.05018526	          0.05000616	          0.05000158	          0.31280262	          0.08094554	          0.35787329	          0.08094534	          0.05000116	          0.09097173	          0.10669850	          0.09788081	          0.08084210	          0.15816183	          0.05000038	          0.05001812	          0.09099885	          0.05000144	          0.05832147	          0.13510360	          0.06695173	          0.08020643	          0.11512885	          0.05868621	          0.05299089	          0.05000010	          0.05000035	          0.05000030	          0.05000024	          0.05583509	          0.05087981	          0.05000004	          0.07277753	          0.05936055	          0.05002951	          0.39065927	          0.06234416	          0.29852709	          0.15245058	          0.46649888	          0.05777391	          0.21650304	          0.06545633	          0.09595705	          0.13031713	
          0.01045182	         -2.92854398	         -1.83771426	          2.78070202	          0.01601137	          0.90852924	         -0.00396224	        -13.58453591	          2.42502530	          5.38229716	         30.02367066	          3.46548698	         -4.34325692	        -15.14765292	        -13.99822734	          1.01465173	          9.80822254	         -7.84293472	         -4.37530312	          3.06048472	         -3.55560598	         24.63683103	         10.32543918	         -3.48358355	          1.10094149	         -1.71759798	          3.96668988	        -13.66453190	         19.38771356	         -4.49728671	        -13.45371601	          5.86995048	         32.30038338	         25.22210133	         86.51662706	         86.51662706	          0.29158036	          0.05000009	          0.05000003	          0.45707250	          0.12761942	          0.05693316	          0.05000068	          0.05000009	          0.05000007	          0.05000007	          0.05063315	          0.07601975	          0.05000071	          0.05000068	          0.05000191	          0.05000230	          0.40942415	          0.05001461	          0.05000015	          0.05000098	          0.05000064	          0.05000062	          0.40113978	          0.73939290	          0.05000004	          0.05000015	          0.05000005	          0.41695004	          0.18398731	          0.22012528	          0.17636265	          0.33804797	          0.49119312	          0.18246149	          0.65214717	          0.34173140	          0.52843582	          0.05000000	          0.15333931	          0.52288769	          0.05000005	          0.05000002	          0.09495680	          0.65710460	          0.05000002	          0.05000001	          0.05000003	          0.06893687	          0.05000028	          0.05870792	          0.05000017	          0.05000026	          0.05000153	          0.30374814	          0.06893703	          0.34827756	          0.06893694	          0.05870971	          0.07752254	          0.12374211	          0.10829173	          0.06986106	          0.18645112	          0.05870977	          0.05014412	          0.07749945	          0.05000425	          0.08750570	          0.15663496	          0.05702003	          0.08371172	          0.13344444	          0.05000060	          0.05000035	          0.05000002	          0.05000009	          0.05000008	          0.05000007	          0.05733536	          0.05779422	          0.05136661	          0.08626817	          0.05055427	          0.06726198	          0.39202372	          0.05518670	          0.33720077	          0.12983413	          0.47896658	          0.05000050	          0.24715358	          0.06458467	          0.08858068	          0.11160359	
          0.02090364	         -2.93005121	         -1.93793041	          3.06488951	          0.03228852	          0.90700675	         -0.00369140	        -14.19474673	          2.07633832	          5.11044188	         29.91740891	          3.70633680	         -4.19838695	        -15.68113170	        -14.61238319	          0.01739584	          8.93391427	         -7.16184629	         -4.50520114	          2.65893788	         -2.93399721	         26.83826659	          9.82800436	         -3.32098414	          1.29990661	         -1.83446406	          3.69374783	        -13.61741632	         19.33664894	         -5.11588206	        -13.45119952	          5.45412603	         33.39450262	         24.55752975	         86.51662706	         86.51662706	          0.24832332	          0.05000012	          0.05000004	          0.38926403	          0.10868665	          0.05000031	          0.05871102	          0.05871014	          0.05007155	          0.05870992	          0.05000187	          0.12952393	          0.13460496	          0.05000092	          0.05000258	          0.06893536	          0.46657907	          0.05000198	          0.05870922	          0.05000079	          0.05000055	          0.05000063	          0.34162907	          0.66319102	          0.05000004	          0.05000027	          0.05000068	          0.41630624	          0.15669209	          0.18746886	          0.15019857	          0.30330392	          0.44932023	          0.17715127	          0.59942465	          0.30708018	          0.47778958	          0.05343312	          0.13059081	          0.44531516	          0.05870982	          0.05000005	          0.08086960	          0.55962043	          0.05000000	          0.05311411	          0.05000003	          0.05870989	          0.05870975	          0.05000033	          0.05871019	          0.05870993	          0.05000226	          0.25868590	          0.05870996	          0.30222614	          0.05870989	          0.05000056	          0.11118988	          0.17018255	          0.15544879	          0.13171923	          0.20828725	          0.05000039	          0.05000218	          0.06600218	          0.05000170	          0.12195603	          0.21369514	          0.05782602	          0.08094494	          0.30411799	          0.09984502	          0.05000048	          0.08094565	          0.05000012	          0.05000013	          0.05000010	          0.05000000	          0.05000001	          0.05000000	          0.07346994	          0.05000037	          0.06628663	          0.42243278	          0.05000008	          0.32303795	          0.24162559	          0.50968048	          0.05870994	          0.21048736	          0.05500329	          0.07543938	          0.09504676	
          0.03135545	         -2.92990059	         -2.03890977	          3.33977544	          0.04880811	          0.90547708	         -0.00339567	        -14.68319607	          1.71155046	          4.81568054	         29.78338207	          3.92200778	         -4.01178170	        -16.41810110	        -15.83010765	         -1.00268658	          7.75048699	         -6.36300759	         -4.67925580	          2.06409281	         -2.20640066	         29.27158898	          9.39570752	         -3.14564994	          1.50037631	         -1.94450516	          3.35145499	        -13.57806978	         19.24695186	         -5.76464031	        -13.46952528	          5.21162168	         34.52990217	         23.92956452	         86.51662706	         86.51662706	          0.24263007	          0.05000093	          0.05683633	          0.33151518	          0.09256264	          0.05000091	          0.05000133	          0.05000035	          0.05000036	          0.05000009	          0.05000048	          0.23406887	          0.11826497	          0.05870998	          0.05870979	          0.05871037	          0.39807842	          0.07562806	          0.05000077	          0.05850483	          0.05870852	          0.05870953	          0.29094702	          0.65944336	          0.05870983	          0.05003117	          0.05000013	          0.35454553	          0.19535995	          0.20003081	          0.17275667	          0.25830754	          0.38266174	          0.15087015	          0.51049777	          0.26152458	          0.40690767	          0.05000000	          0.11121714	          0.37925087	          0.05000001	          0.05000000	          0.08094487	          0.53959960	          0.05367504	          0.05870985	          0.05870994	          0.05000016	          0.05000007	          0.05000010	          0.05000035	          0.05000018	          0.05000014	          0.22030880	          0.05000011	          0.25738968	          0.05000004	          0.05000216	          0.09469488	          0.15516631	          0.13238765	          0.11217837	          0.24815738	          0.05006581	          0.06893911	          0.05621053	          0.05000013	          0.19843198	          0.26762118	          0.06893673	          0.06893672	          0.28715428	          0.08503285	          0.12622484	          0.06893708	          0.11352036	          0.10636072	          0.09161071	          0.07076138	          0.08094829	          0.06893697	          0.06257038	          0.08094568	          0.06893656	          0.53542768	          0.24971411	          0.27511395	          0.20577945	          0.43406731	          0.05000009	          0.17926069	          0.05000001	          0.06424765	          0.08094618	
